<?xml version="1.0" encoding="iso-8859-1"?>
<!-- Uploaded to: SVG Repo, www.svgrepo.com, Generator: SVG Repo Mixer Tools -->
<svg version="1.1" id="Layer_1" xmlns="http://www.w3.org/2000/svg" xmlns:xlink="http://www.w3.org/1999/xlink" 
	 viewBox="0 0 512 512" xml:space="preserve">
<g>
	<rect x="111.85" style="fill:#E0A381;" width="32.422" height="178.224"/>
	<rect x="367.728" style="fill:#E0A381;" width="32.422" height="178.224"/>
</g>
<rect x="111.85" style="opacity:0.1;enable-background:new    ;" width="32.422" height="178.224"/>
<rect x="367.728" style="opacity:0.1;enable-background:new    ;" width="32.422" height="178.224"/>
<rect x="96.998" y="34.086" style="fill:#464754;" width="318.004" height="107.88"/>
<polygon style="fill:#E0A381;" points="409.119,512 153.642,262.274 120.991,292.313 348.832,512 "/>
<polygon style="opacity:0.1;enable-background:new    ;" points="409.119,512 153.642,262.274 120.991,292.313 348.832,512 "/>
<polygon style="fill:#E0A381;" points="102.88,512 358.357,262.274 391.008,292.313 163.167,512 "/>
<polygon style="opacity:0.1;enable-background:new    ;" points="153.642,262.274 120.991,292.313 148.758,319.087 211.764,319.087 
	"/>
<polygon style="opacity:0.1;enable-background:new    ;" points="300.236,319.087 363.241,319.087 391.008,292.313 358.357,262.274 
	"/>
<rect x="128.055" y="263.232" style="fill:#E0A381;" width="255.89" height="28.128"/>
<rect x="128.055" y="204.701" style="fill:#464754;" width="255.89" height="58.526"/>
<rect x="128.055" y="263.232" style="opacity:0.1;enable-background:new    ;" width="49.969" height="28.127"/>
<rect x="333.976" y="263.232" style="opacity:0.1;enable-background:new    ;" width="49.969" height="28.127"/>
<g>
	<rect x="105.816" y="163.683" style="fill:#E0A381;" width="44.478" height="127.668"/>
	<rect x="361.706" y="163.683" style="fill:#E0A381;" width="44.478" height="127.668"/>
</g>
</svg>